<!-- Generated by IcoMoon.io -->
<svg version="1.1" xmlns="http://www.w3.org/2000/svg" width="32" height="32" viewBox="0 0 32 32">
<title>more</title>
<path fill="#fff" d="M16 8.533c2.353 0 4.267-1.914 4.267-4.267s-1.914-4.267-4.267-4.267-4.267 1.914-4.267 4.267 1.914 4.267 4.267 4.267z"></path>
<path fill="#fff" d="M16 23.467c-2.353 0-4.267 1.914-4.267 4.267s1.914 4.267 4.267 4.267 4.267-1.914 4.267-4.267-1.914-4.267-4.267-4.267z"></path>
<path fill="#fff" d="M16 11.733c-2.353 0-4.267 1.914-4.267 4.267s1.914 4.267 4.267 4.267 4.267-1.914 4.267-4.267-1.914-4.267-4.267-4.267z"></path>
</svg>
